<svg xmlns="http://www.w3.org/2000/svg" width="45" height="51.742" viewBox="0 0 45 51.742">
  <g id="Grupo_10" data-name="Grupo 10" transform="translate(-280 -414)">
    <path id="Icon_awesome-car-side" data-name="Icon awesome-car-side" d="M38.25,13.5H37.125L29.476,3.939A4.5,4.5,0,0,0,25.962,2.25H10.922A4.5,4.5,0,0,0,6.744,5.079l-3.369,8.58A4.489,4.489,0,0,0,0,18v7.875A1.125,1.125,0,0,0,1.125,27H4.5A6.75,6.75,0,0,0,18,27h9a6.75,6.75,0,0,0,13.5,0h3.375A1.125,1.125,0,0,0,45,25.875V20.25A6.75,6.75,0,0,0,38.25,13.5Zm-27,16.875A3.375,3.375,0,1,1,14.625,27,3.379,3.379,0,0,1,11.25,30.375ZM16.313,13.5H8.222l2.7-6.75h5.391Zm3.375,0V6.75h6.275l5.4,6.75ZM33.75,30.375A3.375,3.375,0,1,1,37.125,27,3.379,3.379,0,0,1,33.75,30.375Z" transform="translate(280 411.75)" fill="#fff"/>
    <path id="Icon_awesome-long-arrow-alt-left" data-name="Icon awesome-long-arrow-alt-left" d="M9.426,20.813h21.23a.844.844,0,0,0,.844-.844V16.031a.844.844,0,0,0-.844-.844H9.426V11.949a1.688,1.688,0,0,0-2.881-1.193L.494,16.807a1.687,1.687,0,0,0,0,2.386l6.051,6.051a1.688,1.688,0,0,0,2.881-1.193Z" transform="translate(287 440)" fill="#fff"/>
  </g>
</svg>
