<svg xmlns="http://www.w3.org/2000/svg" width="25" height="17.5" viewBox="0 0 25 17.5">
  <path id="Icon_awesome-money-bill-wave" data-name="Icon awesome-money-bill-wave" d="M24.264,2.127a11.568,11.568,0,0,0-4.547-.877c-4.811,0-9.622,2.435-14.434,2.435a11.852,11.852,0,0,1-3.619-.536,1.336,1.336,0,0,0-.4-.063A1.243,1.243,0,0,0,0,4.329V16.721a1.242,1.242,0,0,0,.736,1.151,11.561,11.561,0,0,0,4.547.878c4.811,0,9.623-2.436,14.434-2.436a11.852,11.852,0,0,1,3.619.536,1.336,1.336,0,0,0,.4.063A1.243,1.243,0,0,0,25,15.671V3.279A1.244,1.244,0,0,0,24.264,2.127ZM1.875,5.165a13.594,13.594,0,0,0,2.45.349,2.5,2.5,0,0,1-2.45,2.013Zm0,11.133V14.431a2.5,2.5,0,0,1,2.489,2.4A9.437,9.437,0,0,1,1.875,16.3ZM12.5,13.75c-1.726,0-3.125-1.679-3.125-3.75s1.4-3.75,3.125-3.75S15.625,7.929,15.625,10,14.225,13.75,12.5,13.75Zm10.625,1.085A13.431,13.431,0,0,0,21,14.505a2.5,2.5,0,0,1,2.122-1.925Zm0-9.223a2.5,2.5,0,0,1-2.18-2.4,9.39,9.39,0,0,1,2.18.495Z" transform="translate(0 -1.25)" fill="#e2e2e2"/>
</svg>
